<svg xmlns="http://www.w3.org/2000/svg" width="502" height="612" viewBox="0 0 502 612">
<path d="M 309,480 L 313,492 L 313,501 L 321,501 L 323,510 L 322,521 L 325,522 L 325,529 L 331,529 L 325,517 L 326,511 L 323,505 L 323,499 L 321,497 L 319,500 L 315,498 L 315,489 Z" stroke="black" stroke-width="2.0" fill="none" />
<path d="M 190,478 L 192,480 L 198,512 L 197,524 L 195,520 L 193,499 L 189,483 Z" stroke="black" stroke-width="2.0" fill="none" />
<path d="M 202,475 L 208,533 L 223,542 L 207,536 L 212,541 L 208,543 L 197,530 L 189,537 L 221,547 L 232,544 L 233,528 L 233,543 L 227,541 L 231,527 L 226,541 L 209,533 Z" stroke="black" stroke-width="2.0" fill="none" />
<path d="M 177,472 L 179,474 L 179,490 L 182,506 L 181,517 L 178,516 L 180,513 L 176,489 Z" stroke="black" stroke-width="2.0" fill="none" />
<path d="M 263,467 L 279,495 L 288,489 L 291,517 L 309,518 L 299,522 L 302,540 L 294,519 L 299,543 L 289,526 L 290,554 L 301,554 L 294,533 L 311,554 L 312,514 L 302,518 L 300,502 L 292,513 L 288,488 L 281,496 Z" stroke="black" stroke-width="2.0" fill="none" />
<path d="M 98,464 L 100,473 L 100,484 L 95,485 L 91,482 L 91,471 L 93,471 L 93,479 L 93,471 L 95,471 L 94,481 L 96,481 L 97,483 Z" stroke="black" stroke-width="2.0" fill="none" />
<path d="M 160,459 L 168,510 L 205,532 L 195,475 L 205,532 L 191,478 L 196,523 L 184,475 L 192,522 L 182,476 L 181,517 L 178,472 L 174,513 L 170,466 L 168,509 Z" stroke="black" stroke-width="2.0" fill="none" />
<path d="M 155,454 L 157,456 L 156,458 L 156,477 L 158,488 L 157,495 L 154,487 L 154,476 L 153,475 L 153,458 Z" stroke="black" stroke-width="2.0" fill="none" />
<path d="M 277,448 L 284,455 L 285,458 L 286,455 L 288,457 L 289,460 L 289,468 L 287,471 L 284,469 L 283,470 L 279,467 L 278,455 L 280,454 L 278,454 L 275,450 Z" stroke="black" stroke-width="2.0" fill="none" />
<path d="M 277,448 L 275,451 L 277,453 L 279,459 L 279,468 L 282,470 L 284,469 L 286,471 L 288,471 L 289,468 L 289,460 L 288,459 L 288,456 L 287,455 L 285,456 L 284,454 Z" stroke="black" stroke-width="2.0" fill="none" />
<path d="M 99,445 L 91,483 L 117,485 L 120,449 L 114,484 L 112,476 L 119,446 L 112,485 L 107,487 L 102,485 L 104,445 L 96,464 Z" stroke="black" stroke-width="2.0" fill="none" />
<path d="M 136,438 L 137,441 L 133,457 L 135,491 L 132,492 L 130,459 L 134,439 Z" stroke="black" stroke-width="2.0" fill="none" />
<path d="M 135,437 L 132,490 L 124,461 L 119,486 L 139,494 L 142,441 L 142,495 L 149,449 L 149,500 L 165,509 L 156,454 L 149,499 L 150,448 L 142,494 L 143,440 L 135,492 Z" stroke="black" stroke-width="2.0" fill="none" />
<path d="M 240,435 L 252,454 L 240,457 L 234,442 L 237,455 L 251,455 L 258,477 L 288,502 L 285,512 L 267,495 L 289,534 L 287,495 L 280,499 L 249,462 L 260,475 L 260,453 L 272,469 L 272,458 L 246,453 Z" stroke="black" stroke-width="2.0" fill="none" />
<path d="M 90,450 L 91,468 L 98,441 L 114,437 L 106,484 L 118,435 L 112,464 L 128,433 L 188,449 L 200,463 L 185,465 L 181,450 L 181,462 L 204,472 L 216,535 L 189,449 L 135,432 Z" stroke="black" stroke-width="2.0" fill="none" />
<path d="M 146,423 L 174,428 L 203,443 L 222,459 L 219,460 L 203,446 L 172,430 Z" stroke="black" stroke-width="2.0" fill="none" />
<path d="M 146,422 L 146,425 L 171,430 L 199,444 L 238,480 L 223,459 L 204,443 L 177,429 Z" stroke="black" stroke-width="2.0" fill="none" />
<path d="M 123,409 L 133,404 L 161,404 L 181,414 L 185,418 L 167,409 L 151,405 L 134,407 L 127,410 Z" stroke="black" stroke-width="2.0" fill="none" />
<path d="M 122,408 L 161,407 L 201,430 L 257,492 L 240,486 L 260,512 L 252,496 L 264,505 L 250,483 L 259,489 L 203,427 L 161,404 Z" stroke="black" stroke-width="2.0" fill="none" />
<path d="M 258,384 L 260,382 L 309,407 L 313,411 L 314,422 L 300,416 L 303,413 L 308,418 L 305,414 L 310,414 L 303,409 L 309,410 Z" stroke="black" stroke-width="2.0" fill="none" />
<path d="M 133,380 L 132,383 L 135,386 L 138,387 L 142,386 L 144,389 L 148,391 L 151,390 L 153,392 L 152,395 L 154,393 L 157,396 L 151,390 L 152,385 L 149,385 L 146,382 L 147,381 L 146,379 L 140,380 L 141,383 L 138,387 L 137,381 Z" stroke="black" stroke-width="2.0" fill="none" />
<path d="M 220,374 L 223,378 L 222,379 L 223,380 L 223,388 L 223,380 L 222,379 L 223,378 L 228,382 L 229,388 L 226,390 L 225,389 L 226,383 L 226,387 L 222,394 L 219,391 L 221,386 L 219,378 Z" stroke="black" stroke-width="2.0" fill="none" />
<path d="M 221,374 L 219,374 L 221,386 L 219,391 L 218,387 L 216,387 L 215,389 L 216,392 L 213,395 L 215,397 L 213,399 L 214,402 L 223,401 L 228,397 L 227,390 L 229,389 L 229,384 L 227,380 Z" stroke="black" stroke-width="2.0" fill="none" />
<path d="M 303,367 L 311,362 L 315,367 L 321,370 L 318,371 L 313,369 L 320,371 L 321,373 L 317,374 L 316,372 L 313,372 L 313,376 L 308,373 L 308,376 L 306,374 L 306,371 L 308,370 L 311,372 L 311,368 L 309,367 L 311,365 L 309,365 L 309,368 L 311,370 L 310,371 L 304,369 Z" stroke="black" stroke-width="2.0" fill="none" />
<path d="M 219,362 L 222,361 L 225,364 L 238,369 L 253,379 L 250,380 L 244,376 L 241,376 L 229,368 L 225,367 Z" stroke="black" stroke-width="2.0" fill="none" />
<path d="M 167,360 L 169,362 L 169,371 L 170,372 L 168,383 L 166,385 L 159,385 L 157,383 L 157,380 L 160,375 L 163,381 L 165,381 L 167,377 L 167,370 L 165,362 Z" stroke="black" stroke-width="2.0" fill="none" />
<path d="M 210,359 L 302,407 L 288,409 L 293,404 L 281,398 L 278,403 L 278,397 L 271,402 L 274,397 L 266,394 L 273,407 L 290,414 L 295,407 L 314,423 L 310,407 Z" stroke="black" stroke-width="2.0" fill="none" />
<path d="M 326,352 L 331,363 L 335,358 L 342,375 L 337,378 L 338,372 L 333,374 L 336,376 L 329,383 L 318,378 L 319,384 L 311,392 L 300,382 L 307,375 L 312,379 L 310,374 L 316,383 L 313,376 L 321,374 L 323,369 L 314,365 L 319,363 L 314,361 L 313,364 L 311,360 L 318,355 L 324,361 L 321,364 L 326,364 Z" stroke="black" stroke-width="2.0" fill="none" />
<path d="M 315,329 L 322,336 L 322,339 L 321,340 L 319,337 L 320,342 L 317,346 L 315,346 L 312,344 L 315,341 L 314,337 L 315,340 L 310,345 L 308,345 L 306,343 L 312,340 L 312,338 L 310,337 L 314,333 L 315,334 L 313,331 Z" stroke="black" stroke-width="2.0" fill="none" />
<path d="M 192,323 L 190,323 L 187,332 L 190,335 L 189,336 L 187,335 L 184,339 L 186,346 L 188,344 L 189,345 L 187,341 L 190,338 L 189,334 L 193,328 L 194,329 L 193,337 L 196,336 L 198,332 L 197,327 Z" stroke="black" stroke-width="2.0" fill="none" />
<path d="M 328,302 L 334,304 L 325,320 L 320,320 L 323,329 L 321,331 L 317,322 L 315,324 L 316,320 L 314,325 L 327,333 L 324,328 L 336,330 L 330,337 L 325,337 L 315,328 L 312,332 L 310,330 L 312,326 L 307,318 L 323,314 L 322,318 L 316,317 L 318,320 L 323,318 Z" stroke="black" stroke-width="2.0" fill="none" />
<path d="M 236,325 L 224,329 L 222,322 L 230,323 L 217,317 L 214,320 L 224,324 L 214,326 L 207,320 L 217,313 L 213,309 L 215,315 L 195,316 L 213,317 L 193,321 L 190,311 L 208,311 L 219,296 L 222,303 L 216,308 L 226,304 L 221,314 L 226,311 L 223,317 Z" stroke="black" stroke-width="2.0" fill="none" />
<path d="M 343,318 L 350,329 L 368,332 L 386,301 L 395,316 L 400,314 L 387,300 L 367,332 L 354,331 L 345,312 L 352,310 L 357,322 L 366,319 L 354,327 L 349,322 L 352,315 L 353,327 L 366,321 L 364,313 L 357,320 L 362,307 L 354,295 L 359,311 L 347,310 Z" stroke="black" stroke-width="2.0" fill="none" />
<path d="M 395,293 L 392,289 L 388,289 L 387,290 L 384,290 L 383,291 L 380,291 L 379,292 L 380,293 L 379,294 L 381,296 L 381,297 L 382,297 L 383,298 L 384,298 L 385,297 L 392,297 L 395,295 Z" stroke="black" stroke-width="2.0" fill="none" />
<path d="M 160,286 L 167,303 L 166,309 L 155,318 L 155,324 L 142,319 L 134,325 L 132,323 L 138,316 L 154,312 L 157,306 L 160,312 L 164,305 L 158,310 L 162,299 L 160,305 L 152,309 L 157,299 L 156,287 Z" stroke="black" stroke-width="2.0" fill="none" />
<path d="M 265,276 L 266,278 L 264,283 L 267,286 L 267,290 L 269,292 L 271,292 L 271,290 L 269,288 L 268,281 L 269,278 L 271,276 L 272,277 L 271,287 L 275,292 L 273,294 L 266,293 L 262,288 L 262,279 Z" stroke="black" stroke-width="2.0" fill="none" />
<path d="M 260,271 L 261,272 L 259,274 L 261,272 L 266,275 L 262,278 L 263,291 L 267,294 L 274,294 L 275,291 L 271,287 L 272,276 L 268,276 L 269,288 L 271,290 L 270,292 L 264,283 L 266,275 Z" stroke="black" stroke-width="2.0" fill="none" />
<path d="M 301,257 L 300,362 L 336,331 L 348,395 L 330,343 L 363,373 L 369,341 L 331,323 L 345,273 L 324,327 Z" stroke="black" stroke-width="2.0" fill="none" />
<path d="M 185,247 L 190,250 L 190,254 L 186,256 L 186,259 L 189,262 L 188,266 L 189,267 L 188,263 L 190,262 L 192,264 L 191,265 L 195,268 L 201,267 L 202,269 L 200,271 L 191,269 L 188,271 L 184,270 L 180,266 L 181,263 L 183,264 L 186,262 L 183,261 L 183,251 Z" stroke="black" stroke-width="2.0" fill="none" />
<path d="M 220,236 L 207,253 L 213,277 L 247,301 L 254,286 L 257,301 L 243,303 L 254,312 L 255,286 L 247,301 L 213,277 L 209,248 L 233,235 L 245,258 L 221,242 L 216,273 L 249,296 L 216,273 L 222,242 L 241,252 L 231,245 L 239,254 L 217,259 L 229,285 L 240,286 L 217,260 L 245,258 L 239,239 Z" stroke="black" stroke-width="2.0" fill="none" />
<path d="M 303,224 L 289,235 L 294,223 L 283,229 L 294,243 L 290,264 L 270,270 L 289,265 L 292,252 L 287,271 L 269,273 L 282,262 L 266,269 L 251,259 L 240,270 L 250,281 L 240,269 L 250,259 L 268,273 L 288,271 L 298,258 L 293,231 L 302,233 L 306,252 L 297,251 L 306,253 L 297,232 Z" stroke="black" stroke-width="2.0" fill="none" />
<path d="M 318,229 L 331,224 L 336,227 L 332,231 L 341,228 L 340,235 L 346,232 L 353,237 L 355,232 L 359,240 L 355,232 L 353,237 L 347,232 L 341,235 L 338,228 L 350,225 L 352,231 L 350,225 L 361,220 L 340,220 L 319,231 L 327,218 L 335,217 L 328,221 L 335,223 L 335,217 L 327,218 L 336,214 L 333,211 Z" stroke="black" stroke-width="2.0" fill="none" />
<path d="M 156,211 L 153,214 L 149,210 L 144,217 L 146,219 L 142,219 L 138,226 L 140,230 L 136,231 L 134,237 L 143,237 L 138,243 L 136,241 L 140,248 L 140,240 L 144,245 L 142,248 L 145,247 L 141,239 L 148,241 L 142,236 L 150,236 L 147,229 L 152,231 L 153,228 L 150,224 L 146,226 L 144,221 L 146,219 L 152,222 L 150,218 Z" stroke="black" stroke-width="2.0" fill="none" />
<path d="M 214,198 L 216,200 L 214,210 L 219,215 L 218,216 L 219,220 L 221,222 L 220,227 L 221,230 L 218,234 L 217,233 L 218,223 L 216,216 L 214,215 L 214,213 L 214,215 L 210,217 L 207,209 L 207,206 Z" stroke="black" stroke-width="2.0" fill="none" />
<path d="M 365,197 L 367,200 L 368,206 L 371,208 L 370,212 L 373,216 L 373,220 L 376,222 L 378,227 L 376,229 L 367,218 L 364,219 L 361,215 L 362,212 L 361,209 L 363,207 L 364,208 L 366,207 L 363,199 Z" stroke="black" stroke-width="2.0" fill="none" />
<path d="M 218,191 L 219,204 L 232,219 L 234,216 L 232,218 L 219,203 L 222,191 L 228,209 L 237,214 L 237,224 L 233,224 L 230,230 L 228,216 L 219,207 L 223,212 L 220,215 L 214,209 L 216,199 L 208,204 L 206,202 Z" stroke="black" stroke-width="2.0" fill="none" />
<path d="M 205,188 L 195,205 L 183,197 L 185,201 L 173,213 L 171,209 L 169,211 L 171,209 L 169,214 L 172,212 L 173,215 L 162,226 L 165,219 L 163,222 L 160,219 L 174,203 L 180,203 L 181,198 L 181,201 L 174,202 L 186,186 L 190,187 L 195,181 L 200,185 L 196,188 L 198,190 L 203,186 Z" stroke="black" stroke-width="2.0" fill="none" />
<path d="M 116,169 L 113,182 L 128,202 L 120,209 L 117,197 L 119,209 L 128,206 L 124,195 L 132,204 L 128,196 L 137,198 L 135,212 L 143,201 L 156,204 L 136,218 L 126,214 L 137,222 L 156,205 L 142,199 L 160,188 L 140,209 L 138,196 L 119,190 L 146,192 L 125,192 L 128,180 L 120,189 Z" stroke="black" stroke-width="2.0" fill="none" />
<path d="M 262,154 L 231,164 L 228,173 L 238,172 L 162,244 L 167,219 L 170,227 L 182,221 L 170,218 L 184,213 L 185,201 L 190,212 L 228,176 L 207,179 L 226,172 L 228,157 Z" stroke="black" stroke-width="2.0" fill="none" />
<path d="M 202,155 L 181,173 L 173,182 L 170,181 L 171,178 L 184,165 L 200,153 Z" stroke="black" stroke-width="2.0" fill="none" />
<path d="M 352,140 L 283,152 L 252,171 L 283,188 L 243,180 L 274,185 L 226,195 L 276,156 L 226,188 L 288,180 L 276,215 L 259,216 L 282,212 L 288,186 L 289,202 L 286,155 L 286,177 L 270,170 L 282,153 Z" stroke="black" stroke-width="2.0" fill="none" />
<path d="M 266,140 L 262,144 L 255,142 L 256,143 L 253,145 L 244,144 L 245,142 L 247,141 L 248,142 L 247,141 L 250,137 L 257,135 L 259,136 L 258,135 L 260,133 L 264,135 L 261,137 L 263,139 L 260,140 L 259,138 L 254,140 L 259,139 L 260,141 L 264,139 Z" stroke="black" stroke-width="2.0" fill="none" />
<path d="M 323,112 L 322,116 L 320,114 L 320,118 L 314,115 L 311,119 L 309,117 L 301,119 L 302,116 L 311,115 L 315,111 L 318,114 L 319,106 L 315,108 L 314,106 L 306,113 L 290,116 L 296,115 L 296,119 L 306,117 L 311,119 L 316,115 L 314,120 L 317,116 L 320,119 Z" stroke="black" stroke-width="2.0" fill="none" />
<path d="M 180,103 L 185,104 L 186,108 L 188,104 L 191,105 L 188,111 L 186,110 L 188,113 L 185,120 L 188,122 L 189,127 L 192,122 L 194,124 L 191,129 L 186,130 L 186,124 L 185,127 L 183,122 L 182,127 L 177,122 L 178,119 L 180,121 L 183,119 L 185,113 L 182,111 L 183,107 Z" stroke="black" stroke-width="2.0" fill="none" />
<path d="M 329,102 L 265,115 L 211,146 L 203,155 L 200,153 L 227,132 L 272,108 L 304,99 Z" stroke="black" stroke-width="2.0" fill="none" />
<path d="M 304,99 L 129,333 L 313,406 L 167,270 Z" stroke="black" stroke-width="2.0" fill="none" />
<path d="M 233,120 L 194,119 L 203,85 L 176,121 L 209,129 L 171,138 L 180,108 L 124,168 L 166,114 L 166,151 L 159,126 L 170,151 L 167,134 L 215,125 L 195,153 Z" stroke="black" stroke-width="2.0" fill="none" />
<path d="M 261,78 L 255,81 L 259,82 L 257,90 L 271,90 L 258,94 L 267,97 L 243,109 L 241,120 L 245,114 L 254,114 L 254,106 L 253,111 L 248,107 L 258,101 L 260,111 L 260,101 L 263,110 L 276,91 L 262,105 L 271,88 Z" stroke="black" stroke-width="2.0" fill="none" />
<path d="M 245,68 L 246,71 L 233,79 L 223,80 L 225,81 L 223,84 L 220,84 L 217,79 L 221,75 L 226,77 L 222,78 L 226,78 L 223,75 L 225,73 L 231,76 L 225,73 L 231,71 L 233,76 L 233,71 L 236,74 L 235,70 L 240,68 L 241,71 L 241,67 Z" stroke="black" stroke-width="2.0" fill="none" />
<path d="M 325,63 L 328,67 L 335,69 L 349,68 L 352,70 L 349,71 L 345,78 L 339,81 L 336,86 L 329,81 L 332,78 L 330,71 L 324,66 Z" stroke="black" stroke-width="2.0" fill="none" />
<path d="M 358,74 L 325,63 L 311,72 L 323,71 L 314,96 L 303,90 L 303,79 L 297,85 L 302,79 L 303,90 L 296,89 L 319,96 L 314,80 L 323,66 L 332,78 L 322,82 L 326,72 L 323,84 L 345,84 L 322,95 L 334,93 L 329,86 L 356,82 L 341,81 L 350,71 Z" stroke="black" stroke-width="2.0" fill="none" />
<path d="M 319,63 L 277,72 L 281,64 L 270,71 L 271,63 L 253,63 L 253,71 L 243,66 L 205,84 L 218,86 L 219,100 L 221,83 L 242,98 L 244,81 L 238,95 L 225,82 L 265,62 L 266,72 L 284,65 L 284,75 L 269,74 L 287,78 Z" stroke="black" stroke-width="2.0" fill="none" />
<path d="M 315,55 L 401,416 L 358,67 L 90,214 L 258,562 L 416,485 L 91,496 L 413,526 L 100,436 L 90,214 Z" stroke="black" stroke-width="2.0" fill="none" />
</svg>